<mxfile host="app.diagrams.net" modified="2023-05-19T07:27:27.920Z" agent="Mozilla/5.0 (Windows NT 10.0; Win64; x64; rv:109.0) Gecko/20100101 Firefox/113.0" etag="0YayhkAHN88O8h5cr1-O" version="21.2.9" type="github">
  <diagram id="C5RBs43oDa-KdzZeNtuy" name="Page-1">
    <mxGraphModel dx="1222" dy="586" grid="1" gridSize="10" guides="1" tooltips="1" connect="1" arrows="1" fold="1" page="1" pageScale="1" pageWidth="827" pageHeight="1169" math="0" shadow="0">
      <root>
        <mxCell id="WIyWlLk6GJQsqaUBKTNV-0" />
        <mxCell id="WIyWlLk6GJQsqaUBKTNV-1" parent="WIyWlLk6GJQsqaUBKTNV-0" />
        <mxCell id="5g_yiBCIWojVpbgfXN-V-31" style="edgeStyle=orthogonalEdgeStyle;rounded=0;orthogonalLoop=1;jettySize=auto;html=1;exitX=1;exitY=0.5;exitDx=0;exitDy=0;entryX=0;entryY=0.5;entryDx=0;entryDy=0;" edge="1" parent="WIyWlLk6GJQsqaUBKTNV-1" source="5g_yiBCIWojVpbgfXN-V-0" target="5g_yiBCIWojVpbgfXN-V-1">
          <mxGeometry relative="1" as="geometry" />
        </mxCell>
        <mxCell id="5g_yiBCIWojVpbgfXN-V-0" value="Mulai" style="rounded=1;whiteSpace=wrap;html=1;" vertex="1" parent="WIyWlLk6GJQsqaUBKTNV-1">
          <mxGeometry x="40" y="60" width="80" height="40" as="geometry" />
        </mxCell>
        <mxCell id="5g_yiBCIWojVpbgfXN-V-28" style="edgeStyle=orthogonalEdgeStyle;rounded=0;orthogonalLoop=1;jettySize=auto;html=1;exitX=1;exitY=0.5;exitDx=0;exitDy=0;entryX=0;entryY=0.5;entryDx=0;entryDy=0;" edge="1" parent="WIyWlLk6GJQsqaUBKTNV-1" source="5g_yiBCIWojVpbgfXN-V-1" target="5g_yiBCIWojVpbgfXN-V-5">
          <mxGeometry relative="1" as="geometry" />
        </mxCell>
        <mxCell id="5g_yiBCIWojVpbgfXN-V-1" value="Anonim?" style="rhombus;whiteSpace=wrap;html=1;" vertex="1" parent="WIyWlLk6GJQsqaUBKTNV-1">
          <mxGeometry x="150" y="40" width="80" height="80" as="geometry" />
        </mxCell>
        <mxCell id="5g_yiBCIWojVpbgfXN-V-12" style="edgeStyle=orthogonalEdgeStyle;rounded=0;orthogonalLoop=1;jettySize=auto;html=1;exitX=1;exitY=0.5;exitDx=0;exitDy=0;entryX=0;entryY=0.5;entryDx=0;entryDy=0;" edge="1" parent="WIyWlLk6GJQsqaUBKTNV-1" source="5g_yiBCIWojVpbgfXN-V-5" target="5g_yiBCIWojVpbgfXN-V-11">
          <mxGeometry relative="1" as="geometry" />
        </mxCell>
        <mxCell id="5g_yiBCIWojVpbgfXN-V-5" value="&lt;div&gt;Masukan&lt;/div&gt;&lt;div&gt;Username dan Password&lt;br&gt;&lt;/div&gt;" style="shape=parallelogram;perimeter=parallelogramPerimeter;whiteSpace=wrap;html=1;fixedSize=1;" vertex="1" parent="WIyWlLk6GJQsqaUBKTNV-1">
          <mxGeometry x="340" y="50" width="120" height="60" as="geometry" />
        </mxCell>
        <mxCell id="5g_yiBCIWojVpbgfXN-V-32" style="edgeStyle=orthogonalEdgeStyle;rounded=0;orthogonalLoop=1;jettySize=auto;html=1;exitX=0.25;exitY=1;exitDx=0;exitDy=0;entryX=0;entryY=0.5;entryDx=0;entryDy=0;" edge="1" parent="WIyWlLk6GJQsqaUBKTNV-1" source="5g_yiBCIWojVpbgfXN-V-8" target="5g_yiBCIWojVpbgfXN-V-21">
          <mxGeometry relative="1" as="geometry">
            <Array as="points">
              <mxPoint x="300" y="84" />
              <mxPoint x="300" y="170" />
            </Array>
          </mxGeometry>
        </mxCell>
        <mxCell id="5g_yiBCIWojVpbgfXN-V-8" value="Tidak" style="text;html=1;strokeColor=none;fillColor=none;align=center;verticalAlign=middle;whiteSpace=wrap;rounded=0;" vertex="1" parent="WIyWlLk6GJQsqaUBKTNV-1">
          <mxGeometry x="215" y="54" width="60" height="30" as="geometry" />
        </mxCell>
        <mxCell id="5g_yiBCIWojVpbgfXN-V-10" value="Ya" style="text;html=1;strokeColor=none;fillColor=none;align=center;verticalAlign=middle;whiteSpace=wrap;rounded=0;" vertex="1" parent="WIyWlLk6GJQsqaUBKTNV-1">
          <mxGeometry x="190" y="110" width="60" height="30" as="geometry" />
        </mxCell>
        <mxCell id="5g_yiBCIWojVpbgfXN-V-17" style="edgeStyle=orthogonalEdgeStyle;rounded=0;orthogonalLoop=1;jettySize=auto;html=1;exitX=1;exitY=0.5;exitDx=0;exitDy=0;entryX=0;entryY=0.5;entryDx=0;entryDy=0;" edge="1" parent="WIyWlLk6GJQsqaUBKTNV-1" source="5g_yiBCIWojVpbgfXN-V-11" target="5g_yiBCIWojVpbgfXN-V-13">
          <mxGeometry relative="1" as="geometry" />
        </mxCell>
        <mxCell id="5g_yiBCIWojVpbgfXN-V-11" value="Proses Login" style="rounded=0;whiteSpace=wrap;html=1;" vertex="1" parent="WIyWlLk6GJQsqaUBKTNV-1">
          <mxGeometry x="490" y="50" width="120" height="60" as="geometry" />
        </mxCell>
        <mxCell id="5g_yiBCIWojVpbgfXN-V-29" style="edgeStyle=orthogonalEdgeStyle;rounded=0;orthogonalLoop=1;jettySize=auto;html=1;exitX=0.5;exitY=0;exitDx=0;exitDy=0;" edge="1" parent="WIyWlLk6GJQsqaUBKTNV-1" source="5g_yiBCIWojVpbgfXN-V-13">
          <mxGeometry relative="1" as="geometry">
            <mxPoint x="300" y="80" as="targetPoint" />
            <Array as="points">
              <mxPoint x="700" y="20" />
              <mxPoint x="300" y="20" />
            </Array>
          </mxGeometry>
        </mxCell>
        <mxCell id="5g_yiBCIWojVpbgfXN-V-13" value="Berhasil?" style="rhombus;whiteSpace=wrap;html=1;" vertex="1" parent="WIyWlLk6GJQsqaUBKTNV-1">
          <mxGeometry x="660" y="40" width="80" height="80" as="geometry" />
        </mxCell>
        <mxCell id="5g_yiBCIWojVpbgfXN-V-15" value="Tidak" style="text;html=1;strokeColor=none;fillColor=none;align=center;verticalAlign=middle;whiteSpace=wrap;rounded=0;" vertex="1" parent="WIyWlLk6GJQsqaUBKTNV-1">
          <mxGeometry x="650" y="13" width="60" height="30" as="geometry" />
        </mxCell>
        <mxCell id="5g_yiBCIWojVpbgfXN-V-19" value="Ya" style="text;html=1;strokeColor=none;fillColor=none;align=center;verticalAlign=middle;whiteSpace=wrap;rounded=0;" vertex="1" parent="WIyWlLk6GJQsqaUBKTNV-1">
          <mxGeometry x="650" y="110" width="60" height="30" as="geometry" />
        </mxCell>
        <mxCell id="5g_yiBCIWojVpbgfXN-V-25" style="edgeStyle=orthogonalEdgeStyle;rounded=0;orthogonalLoop=1;jettySize=auto;html=1;exitX=0.5;exitY=1;exitDx=0;exitDy=0;entryX=0.5;entryY=0;entryDx=0;entryDy=0;" edge="1" parent="WIyWlLk6GJQsqaUBKTNV-1" source="5g_yiBCIWojVpbgfXN-V-20" target="5g_yiBCIWojVpbgfXN-V-24">
          <mxGeometry relative="1" as="geometry" />
        </mxCell>
        <mxCell id="5g_yiBCIWojVpbgfXN-V-20" value="Proses Reset Password" style="rounded=0;whiteSpace=wrap;html=1;" vertex="1" parent="WIyWlLk6GJQsqaUBKTNV-1">
          <mxGeometry x="490" y="140" width="120" height="60" as="geometry" />
        </mxCell>
        <mxCell id="5g_yiBCIWojVpbgfXN-V-22" style="edgeStyle=orthogonalEdgeStyle;rounded=0;orthogonalLoop=1;jettySize=auto;html=1;exitX=1;exitY=0.5;exitDx=0;exitDy=0;entryX=0;entryY=0.5;entryDx=0;entryDy=0;" edge="1" parent="WIyWlLk6GJQsqaUBKTNV-1" source="5g_yiBCIWojVpbgfXN-V-21" target="5g_yiBCIWojVpbgfXN-V-20">
          <mxGeometry relative="1" as="geometry" />
        </mxCell>
        <mxCell id="5g_yiBCIWojVpbgfXN-V-21" value="&lt;div&gt;Klik Lupa &lt;br&gt;&lt;/div&gt;&lt;div&gt;Password&lt;/div&gt;" style="shape=parallelogram;perimeter=parallelogramPerimeter;whiteSpace=wrap;html=1;fixedSize=1;" vertex="1" parent="WIyWlLk6GJQsqaUBKTNV-1">
          <mxGeometry x="330" y="140" width="120" height="60" as="geometry" />
        </mxCell>
        <mxCell id="5g_yiBCIWojVpbgfXN-V-33" style="edgeStyle=orthogonalEdgeStyle;rounded=0;orthogonalLoop=1;jettySize=auto;html=1;exitX=0.5;exitY=1;exitDx=0;exitDy=0;entryX=0.5;entryY=0;entryDx=0;entryDy=0;" edge="1" parent="WIyWlLk6GJQsqaUBKTNV-1" source="5g_yiBCIWojVpbgfXN-V-24" target="5g_yiBCIWojVpbgfXN-V-26">
          <mxGeometry relative="1" as="geometry" />
        </mxCell>
        <mxCell id="5g_yiBCIWojVpbgfXN-V-24" value="Proses Kirim Email" style="rounded=0;whiteSpace=wrap;html=1;" vertex="1" parent="WIyWlLk6GJQsqaUBKTNV-1">
          <mxGeometry x="490" y="220" width="120" height="60" as="geometry" />
        </mxCell>
        <mxCell id="5g_yiBCIWojVpbgfXN-V-26" value="Selesai" style="rounded=1;whiteSpace=wrap;html=1;" vertex="1" parent="WIyWlLk6GJQsqaUBKTNV-1">
          <mxGeometry x="510" y="310" width="80" height="40" as="geometry" />
        </mxCell>
      </root>
    </mxGraphModel>
  </diagram>
</mxfile>
